<?xml version="1.0" standalone="no"?>
<svg xmlns="http://www.w3.org/2000/svg" viewBox="0 0 119.162 36" width="119.162" height="36"><g fill="#ffb39f" color="#ffb39f" transform="translate(0 6.000000000000002) scale(0.5106383)"><svg width="46.0" height="47.0" x="0.0" y="0.0" viewBox="0 0 46 47"><path fill="currentColor" fill-rule="evenodd" d="M29.368 34c-.357-2.817-1.256-5.625-2.664-8.333C31.446 17.977 37.79 10.85 40.967 7.88c.424-.391.43-1.048.026-1.452a1.09 1.09 0 0 0-1.5-.03c-3.121 2.922-9.208 9.727-13.978 17.191a32.399 32.399 0 0 0-3.317-4.38A33.66 33.66 0 0 0 21 17.944C25.495 9.464 34.858 2.943 43.85 2c.536 7.76.436 28.055-14.482 32M45.735.954c1.633 19.467-4.343 32.71-16.014 35.665.025.822.004 1.645-.062 2.464-.05.567-.53.977-1.122.948-.575-.047-1-.553-.954-1.12.333-4.033-.589-8.19-2.623-12.13a1.005 1.005 0 0 1-.247-.483 30.13 30.13 0 0 0-3.759-5.38 31.99 31.99 0 0 0-1.392-1.493 1.041 1.041 0 0 1-.404-.408c-4.85-4.747-11.072-7.914-16.908-8.55-.828 11.951 1.479 22.016 6.387 27.727 2.99 3.476 6.928 5.405 11.703 5.73a1.04 1.04 0 0 1 .966 1.107 1.026 1.026 0 0 1-1.03.969c-.023 0-.044 0-.072-.004-5.349-.37-9.77-2.54-13.139-6.452C1.572 33.16-.84 22.404.261 9.257c.044-.56.5-1.026 1.095-.948 6.283.368 13.073 3.535 18.444 8.463C24.812 7.532 35.028.567 44.637.004c.553-.053 1.051.392 1.098.95zM5.766 14.286C11 19.306 23.355 34.181 25.975 45.738a1.046 1.046 0 0 1-.789 1.24 1.224 1.224 0 0 1-.23.022c-.475 0-.906-.327-1.013-.807C21.427 35.089 9.413 20.652 4.32 15.776a1.026 1.026 0 0 1-.027-1.46c.4-.41 1.064-.421 1.474-.03z"></path></svg></g><path fill="#9a1212" fill-rule="nonzero" d="M5.16 19.82L5.16 19.82Q3.48 19.82 2.36 19.10Q1.25 18.38 0.67 17.11Q0.10 15.84 0 14.16L0 14.16L2.40 13.51Q2.47 14.54 2.72 15.50Q2.98 16.46 3.55 17.08Q4.13 17.69 5.16 17.69L5.16 17.69Q6.22 17.69 6.76 17.10Q7.30 16.51 7.30 15.41L7.30 15.41Q7.30 14.09 6.70 13.28Q6.10 12.48 5.18 11.66L5.18 11.66L1.92 8.78Q0.96 7.94 0.50 6.95Q0.05 5.95 0.05 4.49L0.05 4.49Q0.05 2.35 1.27 1.18Q2.50 0 4.61 0L4.61 0Q5.76 0 6.64 0.30Q7.51 0.60 8.10 1.22Q8.69 1.85 9.04 2.80Q9.38 3.74 9.50 5.02L9.50 5.02L7.20 5.64Q7.13 4.68 6.91 3.88Q6.70 3.07 6.16 2.58Q5.62 2.09 4.61 2.09L4.61 2.09Q3.60 2.09 3.04 2.63Q2.47 3.17 2.47 4.22L2.47 4.22Q2.47 5.11 2.77 5.69Q3.07 6.26 3.74 6.86L3.74 6.86L7.03 9.74Q8.14 10.70 8.98 12.04Q9.82 13.37 9.82 15.19L9.82 15.19Q9.82 16.63 9.22 17.68Q8.62 18.72 7.57 19.27Q6.53 19.82 5.16 19.82ZM14.35 19.61L11.78 19.61L11.78 0.17L14.35 0.17L14.35 7.18Q15.05 6.50 15.91 6.02Q16.78 5.54 17.83 5.54L17.83 5.54Q18.65 5.54 19.09 5.98Q19.54 6.41 19.72 7.06Q19.90 7.70 19.90 8.38L19.90 8.38L19.90 19.61L17.33 19.61L17.33 9.12Q17.33 8.38 17.11 7.97Q16.90 7.56 16.22 7.56L16.22 7.56Q15.77 7.56 15.28 7.82Q14.78 8.09 14.35 8.47L14.35 8.47L14.35 19.61ZM26.23 19.80L26.23 19.80Q24.60 19.80 23.71 19.16Q22.82 18.53 22.48 17.29Q22.13 16.06 22.13 14.26L22.13 14.26L22.13 11.09Q22.13 9.24 22.49 8.02Q22.85 6.79 23.75 6.17Q24.65 5.54 26.23 5.54L26.23 5.54Q27.98 5.54 28.81 6.26Q29.64 6.98 29.90 8.34Q30.17 9.70 30.17 11.59L30.17 11.59L30.17 12.72L24.70 12.72L24.70 15.50Q24.70 16.34 24.85 16.87Q25.01 17.40 25.36 17.65Q25.70 17.90 26.26 17.90L26.26 17.90Q26.83 17.90 27.13 17.63Q27.43 17.35 27.54 16.84Q27.65 16.32 27.65 15.62L27.65 15.62L27.65 14.78L30.14 14.78L30.14 15.31Q30.14 17.40 29.26 18.60Q28.37 19.80 26.23 19.80ZM24.70 10.58L24.70 11.33L27.65 11.33L27.65 10.08Q27.65 9.22 27.55 8.63Q27.46 8.04 27.16 7.74Q26.86 7.44 26.21 7.44L26.21 7.44Q25.58 7.44 25.26 7.73Q24.94 8.02 24.82 8.70Q24.70 9.38 24.70 10.58L24.70 10.58ZM35.71 19.80L35.71 19.80Q33.96 19.80 33.10 18.52Q32.23 17.23 32.23 14.16L32.23 14.16L32.23 11.47Q32.23 9.89 32.50 8.53Q32.76 7.18 33.49 6.36Q34.22 5.54 35.64 5.54L35.64 5.54Q36.34 5.54 36.91 5.86Q37.49 6.17 37.94 6.62L37.94 6.62L37.94 0.17L40.51 0.17L40.51 19.61L37.94 19.61L37.94 18.72Q37.49 19.20 36.95 19.50Q36.41 19.80 35.71 19.80ZM36.36 17.78L36.36 17.78Q36.72 17.78 37.13 17.65Q37.54 17.52 37.94 17.26L37.94 17.26L37.94 8.16Q37.61 7.92 37.20 7.74Q36.79 7.56 36.31 7.56L36.31 7.56Q35.42 7.56 35.11 8.41Q34.80 9.26 34.80 10.46L34.80 10.46L34.80 14.38Q34.80 15.34 34.91 16.12Q35.02 16.90 35.35 17.34Q35.69 17.78 36.36 17.78ZM45.48 19.61L43.27 19.61L43.63 0.17L46.30 0.17L49.73 15.94L53.18 0.17L55.82 0.17L56.18 19.61L54.00 19.61L53.78 5.50L50.50 19.61L48.96 19.61L45.70 5.50L45.48 19.61ZM62.78 19.80L62.78 19.80Q61.15 19.80 60.26 19.16Q59.38 18.53 59.03 17.29Q58.68 16.06 58.68 14.26L58.68 14.26L58.68 11.09Q58.68 9.24 59.04 8.02Q59.40 6.79 60.30 6.17Q61.20 5.54 62.78 5.54L62.78 5.54Q64.54 5.54 65.36 6.26Q66.19 6.98 66.46 8.34Q66.72 9.70 66.72 11.59L66.72 11.59L66.72 12.72L61.25 12.72L61.25 15.50Q61.25 16.34 61.40 16.87Q61.56 17.40 61.91 17.65Q62.26 17.90 62.81 17.90L62.81 17.90Q63.38 17.90 63.68 17.63Q63.98 17.35 64.09 16.84Q64.20 16.32 64.20 15.62L64.20 15.62L64.20 14.78L66.70 14.78L66.70 15.31Q66.70 17.40 65.81 18.60Q64.92 19.80 62.78 19.80ZM61.25 10.58L61.25 11.33L64.20 11.33L64.20 10.08Q64.20 9.22 64.10 8.63Q64.01 8.04 63.71 7.74Q63.41 7.44 62.76 7.44L62.76 7.44Q62.14 7.44 61.81 7.73Q61.49 8.02 61.37 8.70Q61.25 9.38 61.25 10.58L61.25 10.58ZM72.26 19.80L72.26 19.80Q70.51 19.80 69.65 18.52Q68.78 17.23 68.78 14.16L68.78 14.16L68.78 11.47Q68.78 9.89 69.05 8.53Q69.31 7.18 70.04 6.36Q70.78 5.54 72.19 5.54L72.19 5.54Q72.89 5.54 73.46 5.86Q74.04 6.17 74.50 6.62L74.50 6.62L74.50 0.17L77.06 0.17L77.06 19.61L74.50 19.61L74.50 18.72Q74.04 19.20 73.50 19.50Q72.96 19.80 72.26 19.80ZM72.91 17.78L72.91 17.78Q73.27 17.78 73.68 17.65Q74.09 17.52 74.50 17.26L74.50 17.26L74.50 8.16Q74.16 7.92 73.75 7.74Q73.34 7.56 72.86 7.56L72.86 7.56Q71.98 7.56 71.66 8.41Q71.35 9.26 71.35 10.46L71.35 10.46L71.35 14.38Q71.35 15.34 71.46 16.12Q71.57 16.90 71.90 17.34Q72.24 17.78 72.91 17.78ZM82.87 19.80L82.87 19.80Q81.12 19.80 80.26 18.52Q79.39 17.23 79.39 14.16L79.39 14.16L79.39 11.47Q79.39 9.89 79.66 8.53Q79.92 7.18 80.65 6.36Q81.38 5.54 82.80 5.54L82.80 5.54Q83.50 5.54 84.07 5.86Q84.65 6.17 85.10 6.62L85.10 6.62L85.10 0.17L87.67 0.17L87.67 19.61L85.10 19.61L85.10 18.72Q84.65 19.20 84.11 19.50Q83.57 19.80 82.87 19.80ZM83.52 17.78L83.52 17.78Q83.88 17.78 84.29 17.65Q84.70 17.52 85.10 17.26L85.10 17.26L85.10 8.16Q84.77 7.92 84.36 7.74Q83.95 7.56 83.47 7.56L83.47 7.56Q82.58 7.56 82.27 8.41Q81.96 9.26 81.96 10.46L81.96 10.46L81.96 14.38Q81.96 15.34 82.07 16.12Q82.18 16.90 82.51 17.34Q82.85 17.78 83.52 17.78Z" transform="translate(31.49, 8.088)"></path></svg>